<svg width="40" height="40" viewBox="0 0 40 40" fill="none" xmlns="http://www.w3.org/2000/svg">
<g clip-path="url(#clip0_23_195)">
<path d="M39.7263 14.6572C39.3853 13.572 38.7042 12.6253 37.7837 11.9572C36.8631 11.2891 35.752 10.9349 34.6146 10.9472H27.3329L25.1213 4.05383C24.7735 2.96876 24.09 2.02218 23.1695 1.3506C22.249 0.679021 21.139 0.317139 19.9996 0.317139C18.8601 0.317139 17.7501 0.679021 16.8296 1.3506C15.9091 2.02218 15.2257 2.96876 14.8779 4.05383L12.6663 10.9472H5.38459C4.25083 10.9488 3.14657 11.3086 2.22956 11.9753C1.31254 12.642 0.629657 13.5815 0.278458 14.6595C-0.0727408 15.7375 -0.0742953 16.8989 0.274017 17.9778C0.622329 19.0567 1.30269 19.998 2.21792 20.6672L8.14459 25.0005L5.89126 31.9788C5.52711 33.0611 5.52249 34.2322 5.8781 35.3173C6.23371 36.4025 6.9305 37.3436 7.86459 38.0005C8.78268 38.6785 9.89524 39.0417 11.0365 39.036C12.1778 39.0302 13.2867 38.6559 14.1979 37.9688L19.9996 33.6988L25.8029 37.9638C26.7193 38.6379 27.8259 39.0041 28.9635 39.0096C30.1012 39.0151 31.2112 38.6598 32.1342 37.9947C33.0571 37.3296 33.7454 36.3889 34.1001 35.308C34.4547 34.227 34.4575 33.0614 34.1079 31.9788L31.8546 25.0005L37.7879 20.6672C38.7136 20.0064 39.402 19.0652 39.7511 17.9827C40.1002 16.9003 40.0915 15.7343 39.7263 14.6572ZM35.8213 17.9755L28.9146 23.0238C28.6309 23.2308 28.4198 23.522 28.3115 23.8561C28.2031 24.1901 28.2031 24.5498 28.3113 24.8838L30.9363 33.0005C31.0691 33.4122 31.0679 33.8554 30.933 34.2664C30.7981 34.6773 30.5363 35.035 30.1853 35.2878C29.8343 35.5406 29.4122 35.6756 28.9796 35.6734C28.547 35.6712 28.1263 35.5319 27.7779 35.2755L20.9863 30.2755C20.7002 30.0654 20.3545 29.9521 19.9996 29.9521C19.6446 29.9521 19.299 30.0654 19.0129 30.2755L12.2213 35.2755C11.8731 35.5354 11.4512 35.6776 11.0167 35.6815C10.5822 35.6854 10.1578 35.5509 9.80497 35.2974C9.45212 35.0439 9.18917 34.6846 9.05425 34.2716C8.91933 33.8586 8.91945 33.4134 9.05459 33.0005L11.6879 24.8838C11.7961 24.5498 11.796 24.1901 11.6877 23.8561C11.5793 23.522 11.3683 23.2308 11.0846 23.0238L4.17792 17.9755C3.83009 17.7208 3.57165 17.3627 3.43949 16.9524C3.30734 16.5421 3.30824 16.1005 3.44206 15.6907C3.57589 15.2809 3.8358 14.9238 4.18466 14.6706C4.53352 14.4173 4.95349 14.2808 5.38459 14.2805H13.8846C14.2374 14.2805 14.5812 14.1685 14.8663 13.9606C15.1515 13.7528 15.3633 13.4598 15.4713 13.1238L18.0546 5.07216C18.1872 4.66014 18.4471 4.30081 18.7969 4.04591C19.1467 3.79101 19.5684 3.65367 20.0013 3.65367C20.4341 3.65367 20.8558 3.79101 21.2056 4.04591C21.5554 4.30081 21.8153 4.66014 21.9479 5.07216L24.5313 13.1238C24.6392 13.4598 24.851 13.7528 25.1362 13.9606C25.4213 14.1685 25.7651 14.2805 26.1179 14.2805H34.6179C35.049 14.2808 35.469 14.4173 35.8179 14.6706C36.1667 14.9238 36.4266 15.2809 36.5604 15.6907C36.6943 16.1005 36.6952 16.5421 36.563 16.9524C36.4309 17.3627 36.1724 17.7208 35.8246 17.9755H35.8213Z" fill="white"/>
</g>
<defs>
<clipPath id="clip0_23_195">
<rect width="40" height="40" fill="white"/>
</clipPath>
</defs>
</svg>
