<svg width="47" height="40" viewBox="0 0 47 40" fill="none" xmlns="http://www.w3.org/2000/svg">
<g clip-path="url(#clip0_26_507)">
<path d="M17.7939 40H8.38278C6.37191 40 4.4434 39.2976 3.0215 38.0474C1.5996 36.7971 0.800781 35.1014 0.800781 33.3333V25C0.800781 23.2319 1.5996 21.5362 3.0215 20.286C4.4434 19.0357 6.37191 18.3333 8.38278 18.3333H25.1712C26.1971 18.3338 27.2054 18.567 28.0987 19.0105C28.992 19.4541 29.7399 20.0928 30.2701 20.865L36.3679 14.9733C36.8723 14.4856 37.481 14.0901 38.1594 13.8094C38.8377 13.5287 39.5722 13.3683 40.3211 13.3373C41.07 13.3064 41.8184 13.4055 42.5237 13.629C43.2289 13.8525 43.8772 14.1961 44.4314 14.64C45.5372 15.5332 46.1998 16.7725 46.2768 18.091C46.3537 19.4096 45.8387 20.702 44.8427 21.69L31.9533 34.4183C30.1736 36.1734 27.9922 37.5779 25.5521 38.5398C23.1119 39.5017 20.4681 39.9993 17.7939 40ZM8.38278 21.6667C7.37734 21.6667 6.41309 22.0179 5.70214 22.643C4.99119 23.2681 4.59178 24.1159 4.59178 25V33.3333C4.59178 34.2174 4.99119 35.0652 5.70214 35.6904C6.41309 36.3155 7.37734 36.6667 8.38278 36.6667H17.7939C19.9319 36.6659 22.0456 36.2679 23.9964 35.4987C25.9472 34.7295 27.6911 33.6065 29.1139 32.2033L42.0127 19.4733C42.3476 19.1417 42.521 18.7076 42.4954 18.2646C42.4699 17.8217 42.2476 17.4052 41.8763 17.105C41.4987 16.8065 41.0037 16.6493 40.4963 16.6667C40.2448 16.676 39.998 16.7293 39.7702 16.8235C39.5424 16.9176 39.3382 17.0507 39.1695 17.215L30.78 25.3333C30.4117 26.2296 29.7735 27.0212 28.9336 27.6235C28.0937 28.2258 27.0835 28.6163 26.0109 28.7533L16.2283 29.9833C15.7306 30.0461 15.2249 29.9325 14.8225 29.6674C14.4201 29.4024 14.1539 29.0076 14.0825 28.57C14.0112 28.1324 14.1404 27.6878 14.4418 27.334C14.7433 26.9801 15.1922 26.7461 15.6899 26.6833L25.4745 25.455C26.0176 25.3882 26.5117 25.1427 26.8569 24.768C27.2021 24.3933 27.3726 23.9174 27.3341 23.4363C27.2956 22.9553 27.0509 22.5051 26.6494 22.1766C26.2479 21.8481 25.7196 21.6659 25.1712 21.6667H8.38278ZM21.6513 15.1233C20.7922 15.1254 19.9581 14.8689 19.2876 14.3967C16.0425 12.1067 12.1738 8.66667 12.1738 5.33333C12.1272 3.96394 12.6994 2.63407 13.765 1.63461C14.8307 0.635139 16.3031 0.0474203 17.8603 0C19.2769 0.00485137 20.636 0.493029 21.6513 1.36167C22.6666 0.493029 24.0257 0.00485137 25.4423 0C26.9994 0.0474203 28.4719 0.635139 29.5375 1.63461C30.6032 2.63407 31.1753 3.96394 31.1288 5.33333C31.1288 8.66667 27.2601 12.1067 24.0131 14.3983C23.3428 14.8697 22.5095 15.1255 21.6513 15.1233ZM17.8603 3.33333C17.3094 3.38194 16.8021 3.6187 16.4477 3.99271C16.0932 4.36671 15.9198 4.84809 15.9648 5.33333C15.9648 6.83333 18.1465 9.31667 21.6626 11.7983C25.1561 9.31667 27.3378 6.83333 27.3378 5.33333C27.3827 4.84809 27.2094 4.36671 26.8549 3.99271C26.5004 3.6187 25.9932 3.38194 25.4423 3.33333C24.8913 3.38194 24.3841 3.6187 24.0296 3.99271C23.6752 4.36671 23.5018 4.84809 23.5468 5.33333C23.5468 5.77536 23.3471 6.19928 22.9916 6.51184C22.6361 6.82441 22.154 7 21.6513 7C21.1486 7 20.6664 6.82441 20.311 6.51184C19.9555 6.19928 19.7558 5.77536 19.7558 5.33333C19.8008 4.84809 19.6274 4.36671 19.2729 3.99271C18.9184 3.6187 18.4112 3.38194 17.8603 3.33333Z" fill="white"/>
</g>
<defs>
<clipPath id="clip0_26_507">
<rect width="45.492" height="40" fill="white" transform="translate(0.800781)"/>
</clipPath>
</defs>
</svg>
