<svg width="40" height="40" viewBox="0 0 40 40" fill="none" xmlns="http://www.w3.org/2000/svg">
<g clip-path="url(#clip0_23_245)">
<path d="M39.7264 14.6572C39.3855 13.572 38.7044 12.6253 37.7838 11.9572C36.8632 11.2891 35.7521 10.9349 34.6147 10.9472H27.333L25.1214 4.05383C24.7736 2.96876 24.0902 2.02218 23.1697 1.3506C22.2492 0.679021 21.1392 0.317139 19.9997 0.317139C18.8603 0.317139 17.7503 0.679021 16.8298 1.3506C15.9093 2.02218 15.2258 2.96876 14.878 4.05383L12.6664 10.9472H5.38471C4.25095 10.9488 3.1467 11.3086 2.22968 11.9753C1.31266 12.642 0.629779 13.5815 0.27858 14.6595C-0.0726187 15.7375 -0.0741732 16.8989 0.274139 17.9778C0.622451 19.0567 1.30281 19.998 2.21804 20.6672L8.14471 25.0005L5.89138 31.9788C5.52723 33.0611 5.52262 34.2322 5.87823 35.3173C6.23384 36.4025 6.93062 37.3436 7.86471 38.0005C8.7828 38.6785 9.89536 39.0417 11.0366 39.036C12.1779 39.0302 13.2868 38.6559 14.198 37.9688L19.9997 33.6988L25.803 37.9638C26.7195 38.6379 27.826 39.0041 28.9637 39.0096C30.1013 39.0151 31.2114 38.6598 32.1343 37.9947C33.0573 37.3296 33.7455 36.3889 34.1002 35.308C34.4548 34.227 34.4576 33.0614 34.108 31.9788L31.8547 25.0005L37.788 20.6672C38.7137 20.0064 39.4021 19.0652 39.7512 17.9827C40.1003 16.9003 40.0916 15.7343 39.7264 14.6572ZM35.8214 17.9755L28.9147 23.0238C28.631 23.2308 28.42 23.522 28.3116 23.8561C28.2033 24.1901 28.2032 24.5498 28.3114 24.8838L30.9364 33.0005C31.0692 33.4122 31.0681 33.8554 30.9331 34.2664C30.7982 34.6773 30.5364 35.035 30.1854 35.2878C29.8344 35.5406 29.4123 35.6756 28.9797 35.6734C28.5472 35.6712 28.1264 35.5319 27.778 35.2755L20.9864 30.2755C20.7003 30.0654 20.3546 29.9521 19.9997 29.9521C19.6448 29.9521 19.2991 30.0654 19.013 30.2755L12.2214 35.2755C11.8732 35.5354 11.4513 35.6776 11.0168 35.6815C10.5824 35.6854 10.1579 35.5509 9.80509 35.2974C9.45224 35.0439 9.18929 34.6846 9.05437 34.2716C8.91945 33.8586 8.91957 33.4134 9.05471 33.0005L11.688 24.8838C11.7962 24.5498 11.7962 24.1901 11.6878 23.8561C11.5795 23.522 11.3684 23.2308 11.0847 23.0238L4.17804 17.9755C3.83022 17.7208 3.57177 17.3627 3.43961 16.9524C3.30746 16.5421 3.30836 16.1005 3.44218 15.6907C3.57601 15.2809 3.83592 14.9238 4.18478 14.6706C4.53364 14.4173 4.95362 14.2808 5.38471 14.2805H13.8847C14.2376 14.2805 14.5813 14.1685 14.8665 13.9606C15.1516 13.7528 15.3634 13.4598 15.4714 13.1238L18.0547 5.07216C18.1873 4.66014 18.4472 4.30081 18.797 4.04591C19.1469 3.79101 19.5685 3.65367 20.0014 3.65367C20.4342 3.65367 20.8559 3.79101 21.2057 4.04591C21.5555 4.30081 21.8154 4.66014 21.948 5.07216L24.5314 13.1238C24.6394 13.4598 24.8512 13.7528 25.1363 13.9606C25.4214 14.1685 25.7652 14.2805 26.118 14.2805H34.618C35.0491 14.2808 35.4691 14.4173 35.818 14.6706C36.1668 14.9238 36.4267 15.2809 36.5606 15.6907C36.6944 16.1005 36.6953 16.5421 36.5631 16.9524C36.431 17.3627 36.1725 17.7208 35.8247 17.9755H35.8214Z" fill="#FAFF02"/>
</g>
<defs>
<clipPath id="clip0_23_245">
<rect width="40" height="40" fill="white"/>
</clipPath>
</defs>
</svg>
