<svg width="24" height="24" viewBox="0 0 24 24" fill="none" xmlns="http://www.w3.org/2000/svg">
<g clip-path="url(#clip0_23_162)">
<path d="M14.9998 3.84852C15.0029 4.04738 15.0641 4.24099 15.1759 4.40551C15.2876 4.57004 15.4451 4.6983 15.6288 4.77452C17.271 5.4971 18.6598 6.69402 19.6168 8.21162C20.5738 9.72922 21.0554 11.4982 20.9998 13.2915C20.961 15.6785 19.9757 17.9523 18.2605 19.6127C16.5453 21.2732 14.2407 22.1842 11.8538 22.1455C9.46682 22.1068 7.19302 21.1214 5.53257 19.4062C3.87212 17.691 2.96105 15.3865 2.99977 12.9995C3.00208 11.2557 3.51091 9.55019 4.46442 8.0902C5.41792 6.6302 6.77503 5.47864 8.37077 4.77552C8.55456 4.69884 8.71197 4.57019 8.8237 4.40535C8.93544 4.24051 8.99663 4.04663 8.99977 3.84752C9.00002 3.68373 8.96005 3.52238 8.88335 3.37766C8.80664 3.23294 8.69557 3.10927 8.55988 3.01753C8.4242 2.92579 8.26805 2.86878 8.10517 2.85152C7.9423 2.83425 7.77767 2.85726 7.62577 2.91852C5.30505 3.92466 3.40199 5.69986 2.23713 7.94511C1.07227 10.1904 0.716795 12.7685 1.23058 15.2452C1.74436 17.7219 3.096 19.9458 5.05784 21.5425C7.01968 23.1391 9.47183 24.0108 12.0013 24.0108C14.5307 24.0108 16.9829 23.1391 18.9447 21.5425C20.9065 19.9458 22.2582 17.7219 22.772 15.2452C23.2857 12.7685 22.9303 10.1904 21.7654 7.94511C20.6005 5.69986 18.6975 3.92466 16.3768 2.91852C16.2246 2.85659 16.0596 2.83309 15.8962 2.8501C15.7329 2.86711 15.5762 2.92409 15.4401 3.01602C15.304 3.10795 15.1926 3.232 15.1158 3.37719C15.039 3.52239 14.9991 3.68427 14.9998 3.84852Z" fill="white"/>
<path d="M13.0002 1C13.0002 0.447715 12.5525 0 12.0002 0C11.4479 0 11.0002 0.447715 11.0002 1V7C11.0002 7.55228 11.4479 8 12.0002 8C12.5525 8 13.0002 7.55228 13.0002 7V1Z" fill="white"/>
</g>
<defs>
<clipPath id="clip0_23_162">
<rect width="24" height="24" fill="white"/>
</clipPath>
</defs>
</svg>
